<?xml version="1.0" encoding="UTF-8" standalone="no"?>
<!-- Created with Inkscape (http://www.inkscape.org/) -->

<svg
   xmlns:dc="http://purl.org/dc/elements/1.1/"
   xmlns:cc="http://creativecommons.org/ns#"
   xmlns:rdf="http://www.w3.org/1999/02/22-rdf-syntax-ns#"
   xmlns:svg="http://www.w3.org/2000/svg"
   xmlns="http://www.w3.org/2000/svg"
   xmlns:sodipodi="http://sodipodi.sourceforge.net/DTD/sodipodi-0.dtd"
   xmlns:inkscape="http://www.inkscape.org/namespaces/inkscape"
   width="4.2333336mm"
   height="4.2333336mm"
   viewBox="0 0 4.2333336 4.2333336"
   version="1.1"
   id="svg8"
   inkscape:version="0.92.2 (5c3e80d, 2017-08-06)"
   sodipodi:docname="BlahBlahHalf.svg">
  <defs
     id="defs2">
    <inkscape:perspective
       sodipodi:type="inkscape:persp3d"
       inkscape:vp_x="-113.912 : 43.960931 : 0"
       inkscape:vp_y="0 : 888.09962 : 0"
       inkscape:vp_z="36.821219 : 47.317734 : 0"
       inkscape:persp3d-origin="109.13037 : 97.135178 : 1"
       id="perspective815" />
  </defs>
  <sodipodi:namedview
     id="base"
     pagecolor="#ffffff"
     bordercolor="#666666"
     borderopacity="1.0"
     inkscape:pageopacity="0.0"
     inkscape:pageshadow="2"
     inkscape:zoom="44.8"
     inkscape:cx="9.594082"
     inkscape:cy="8.6888757"
     inkscape:document-units="mm"
     inkscape:current-layer="layer1"
     showgrid="false"
     fit-margin-top="0"
     fit-margin-left="0"
     fit-margin-right="0"
     fit-margin-bottom="0"
     inkscape:window-width="1920"
     inkscape:window-height="1017"
     inkscape:window-x="-8"
     inkscape:window-y="-8"
     inkscape:window-maximized="1" />
  <metadata
     id="metadata5">
    <rdf:RDF>
      <cc:Work
         rdf:about="">
        <dc:format>image/svg+xml</dc:format>
        <dc:type
           rdf:resource="http://purl.org/dc/dcmitype/StillImage" />
        <dc:title></dc:title>
      </cc:Work>
    </rdf:RDF>
  </metadata>
  <g
     inkscape:label="Layer 1"
     inkscape:groupmode="layer"
     id="layer1"
     transform="translate(-33.924698,-236.13399)">
    <g
       sodipodi:type="inkscape:box3d"
       id="g859"
       style="opacity:1;fill:#ff0000;fill-opacity:1;stroke:#000004;stroke-width:0;stroke-miterlimit:4;stroke-dasharray:none;stroke-opacity:0.92964825"
       inkscape:perspectiveID="#perspective815"
       inkscape:corner0="0.46346177 : 0.077133839 : 0 : 1"
       inkscape:corner7="-0.41054225 : 0.0036568885 : 1.2323765 : 1" />
    <g
       aria-label="Blah"
       transform="matrix(0.90042903,0.34970691,-0.38989823,0.95915377,0,0)"
       style="font-style:normal;font-weight:normal;font-size:47.06781006px;line-height:14.25;font-family:sans-serif;letter-spacing:0px;word-spacing:0px;fill:#000000;fill-opacity:1;stroke:none;stroke-width:0.26458332"
       id="text875" />
    <flowRoot
       xml:space="preserve"
       id="flowRoot877"
       style="font-style:normal;font-weight:normal;font-size:40px;line-height:1.25;font-family:sans-serif;letter-spacing:0px;word-spacing:0px;fill:#000000;fill-opacity:1;stroke:none"><flowRegion
         id="flowRegion879"><rect
           id="rect881"
           width="532.07068"
           height="222.1799"
           x="1220"
           y="179.66254"
           ry="0" /></flowRegion><flowPara
         id="flowPara883" /></flowRoot>    <flowRoot
       xml:space="preserve"
       id="flowRoot885"
       style="font-style:normal;font-weight:normal;font-size:40px;line-height:1.25;font-family:sans-serif;letter-spacing:0px;word-spacing:0px;fill:#000000;fill-opacity:1;stroke:none"><flowRegion
         id="flowRegion887"><rect
           id="rect889"
           width="100"
           height="82.85714"
           x="285.71429"
           y="299.66254" /></flowRegion><flowPara
         id="flowPara891" /></flowRoot>    <g
       aria-label="Blah"
       transform="matrix(0.02833618,1.5223592e-4,-0.00310678,0.02683007,31.363065,236.17184)"
       style="font-style:normal;font-weight:normal;font-size:46.81280899px;line-height:14.25;font-family:sans-serif;letter-spacing:0px;word-spacing:0px;fill:#000000;fill-opacity:1;stroke:none;stroke-width:9.59280872"
       id="text875-7"
       inkscape:export-xdpi="96"
       inkscape:export-ydpi="96">
      <path
         id="path1157"
         style="font-size:46.81280899px;line-height:14.25;stroke-width:9.59280872"
         d="m 208.32723,104.76713 v 15.45188 h -4.20583 v -15.31474 q 0,-3.63439 -1.41719,-5.440158 -1.41718,-1.805768 -4.25155,-1.805768 -3.40582,0 -5.37159,2.171493 -1.96577,2.171493 -1.96577,5.920173 v 14.469 h -4.2287 V 84.652246 h 4.2287 v 13.943269 q 1.50861,-2.30864 3.54296,-3.451531 2.0572,-1.142891 4.73157,-1.142891 4.41156,0 6.67448,2.742938 2.26292,2.720081 2.26292,8.023099 z m -38.35541,2.58293 q -5.0973,0 -7.06307,1.16575 -1.96577,1.16575 -1.96577,3.97726 0,2.24006 1.4629,3.56582 1.48576,1.30289 4.02297,1.30289 3.49725,0 5.60017,-2.46864 2.12578,-2.4915 2.12578,-6.60591 v -0.93717 z m 8.38881,-1.7372 v 14.60615 h -4.20583 v -3.88583 q -1.44005,2.3315 -3.58868,3.45153 -2.14864,1.09718 -5.2573,1.09718 -3.93154,0 -6.26304,-2.19435 -2.30864,-2.21721 -2.30864,-5.92018 0,-4.32013 2.88009,-6.51448 2.90294,-2.19435 8.64025,-2.19435 h 5.89732 v -0.41144 q 0,-2.90294 -1.92006,-4.48013 -1.8972,-1.600047 -5.34873,-1.600047 -2.19435,0 -4.27441,0.52573 -2.08006,0.525729 -4.00012,1.577189 v -3.885829 q 2.30864,-0.891455 4.48013,-1.325753 2.1715,-0.457157 4.2287,-0.457157 5.55445,0 8.29739,2.880085 2.74293,2.880085 2.74293,8.731682 z M 145.35395,84.652246 h 4.20584 v 35.566764 h -4.20584 z m -27.29224,19.269144 v 12.50322 h 7.40594 q 3.72582,0 5.50873,-1.53147 1.80577,-1.55433 1.80577,-4.73157 0,-3.20009 -1.80577,-4.70871 -1.78291,-1.53147 -5.50873,-1.53147 z m 0,-14.034704 V 100.1727 h 6.83449 q 3.38296,0 5.02872,-1.257176 1.66862,-1.280038 1.66862,-3.885829 0,-2.582933 -1.66862,-3.862971 -1.64576,-1.280038 -5.02872,-1.280038 z m -4.61728,-3.794397 h 11.79464 q 5.28015,0 8.13738,2.19435 2.85723,2.194351 2.85723,6.240184 0,3.131521 -1.4629,4.983004 -1.4629,1.851483 -4.29727,2.308643 3.40581,0.73145 5.28015,3.06294 1.8972,2.30864 1.8972,5.78303 0,4.57157 -3.10866,7.06307 -3.10866,2.4915 -8.84598,2.4915 h -12.25179 z m 123.89838,-33.716877 0.34798,15.863219 -4.14128,0.01188 -0.34489,-15.72242 q -0.0819,-3.731142 -1.51794,-5.580977 -1.4361,-1.849835 -4.22695,-1.841829 -3.35354,0.0096 -5.24023,2.244469 -1.88669,2.23485 -1.80227,6.083323 l 0.32585,14.854168 -4.16378,0.01194 -0.80098,-36.513562 4.16378,-0.01194 0.31401,14.314443 q 1.43346,-2.374357 3.41084,-3.553417 1.99989,-1.179126 4.6332,-1.186679 4.34383,-0.01246 6.63379,2.797105 2.28944,2.786098 2.40887,8.230279 z m -37.70845,2.760021 q -5.01905,0.0144 -6.92839,1.216731 -1.90934,1.202333 -1.84603,4.088687 0.0505,2.299699 1.52075,3.656612 1.49229,1.333382 3.99056,1.326216 3.44356,-0.0099 5.4586,-2.550177 2.03704,-2.563831 1.94438,-6.787764 l -0.0211,-0.962119 z m 8.22092,-1.807131 0.32894,14.994965 -4.14128,0.01188 -0.0875,-3.989271 q -1.36543,2.397629 -3.45586,3.553547 -2.09094,1.132451 -5.15188,1.141231 -3.87119,0.0111 -6.21632,-2.235075 -2.32313,-2.269711 -2.40653,-6.071252 -0.0973,-4.43513 2.68917,-6.696029 2.80896,-2.260964 8.4582,-2.277168 l 5.80679,-0.01666 -0.009,-0.422393 q -0.0654,-2.98022 -1.99148,-4.593972 -1.9041,-1.637283 -5.30265,-1.627534 -2.16067,0.0062 -4.19696,0.551798 -2.03628,0.5456 -3.90318,1.630472 l -0.0875,-3.989271 q 2.25312,-0.921706 4.38149,-1.373698 2.12786,-0.47546 4.15349,-0.48127 5.46918,-0.01569 8.23488,2.933319 2.76569,2.949006 2.89747,8.956379 z m -32.97205,-21.425374 4.14128,-0.01188 0.80098,36.513563 -4.14128,0.01188 z m -26.43932,19.859174 0.28158,12.836066 7.29225,-0.02092 q 3.66863,-0.01052 5.38968,-1.587801 1.74304,-1.600808 1.67149,-4.862624 -0.0721,-3.285282 -1.88409,-4.828958 -1.79003,-1.567206 -5.45866,-1.556683 z m -0.31606,-14.408307 0.23164,10.559834 6.72958,-0.0193 q 3.33103,-0.0096 4.92321,-1.304849 1.61417,-1.318826 1.55549,-3.993984 -0.0582,-2.651692 -1.73,-3.961092 -1.64932,-1.309464 -4.98035,-1.299909 z M 143.496,33.47143 155.10958,33.43812 q 5.19909,-0.01491 8.06188,2.229782 2.86278,2.244695 2.9539,6.39823 0.0705,3.214883 -1.32823,5.119784 -1.39874,1.904903 -4.17931,2.382235 3.37001,0.741301 5.26808,3.12957 1.92006,2.364738 1.99831,5.931615 0.10295,4.69326 -2.90188,7.259867 -3.00483,2.566607 -8.65407,2.582811 l -12.06371,0.0346 z M 97.093667,81.651883 205.27711,81.116565 231.50963,141.0398 123.32619,141.57511 Z M 205.27711,81.116565 231.50963,141.0398 250.33598,71.165697 224.10345,11.242468 Z M 97.093667,81.651883 205.27711,81.116565 224.10345,11.242468 115.92001,11.777785 Z M 123.32619,141.57511 231.50963,141.0398 250.33598,71.165697 142.15253,71.701016 Z M 115.92001,11.777785 224.10345,11.242468 250.33598,71.165697 142.15253,71.701016 Z M 97.093667,81.651883 123.32619,141.57511 142.15253,71.701016 115.92001,11.777785 Z"
         inkscape:connector-curvature="0" />
    </g>
  </g>
</svg>
